<?xml version="1.0" encoding="UTF-8"?>
<svg width="88px" height="35px" viewBox="0 0 88 35" version="1.1" xmlns="http://www.w3.org/2000/svg" xmlns:xlink="http://www.w3.org/1999/xlink">
    <!-- Generator: Sketch 53.2 (72643) - https://sketchapp.com -->
    <title>Artboard</title>
    <desc>Created with Sketch.</desc>
    <g id="Artboard" stroke="none" stroke-width="1" fill="none" fill-rule="evenodd">
        <g id="Group-3" transform="translate(0.000000, 1.000000)" fill-rule="nonzero">
            <g id="Group-2">
                <g id="Group-4">
                    <circle id="Oval" fill="#29ABE0" cx="16.28" cy="16.28" r="16.28"></circle>
                    <path d="M22.257931,8.8 L23.8655476,8.8 C26.966324,8.8 29.48,11.313676 29.48,14.4144524 L29.48,14.7444665 C29.48,17.845243 26.966324,20.3589189 23.8655476,20.3589189 L22.257931,20.3589189 L22.257931,22.0487143 C22.257931,23.4798419 21.0977729,24.64 19.6666453,24.64 L7.43128571,24.64 C6.00015813,24.64 4.84,23.4798419 4.84,22.0487143 L4.84,10.0956429 C4.84,9.38007907 5.42007907,8.8 6.13564286,8.8 L22.257931,8.8 Z M22.257931,11.7967568 L22.257931,17.3621622 L23.7235042,17.3621622 C25.2603485,17.3621622 26.5062069,16.1163037 26.5062069,14.5794595 C26.5062069,13.0426152 25.2603485,11.7967568 23.7235042,11.7967568 L22.257931,11.7967568 Z" id="Rectangle-2" fill="#FFFFFF"></path>
                </g>
                <g id="Group" transform="translate(4.840000, 8.800000)" fill="#FF5E5B">
                    <path d="M8.36,5.27684576 C8.76029424,4.10561525 9.70894135,3.52 11.2059413,3.52 C13.4514413,3.52 14.2839059,6.3136503 13.106875,8.14 C12.3221877,9.35756646 10.7398961,10.8975665 8.36,12.76 C5.98010394,10.8975665 4.39781228,9.35756646 3.61312502,8.14 C2.43609412,6.3136503 3.26855871,3.52 5.51405867,3.52 C7.01105865,3.52 7.95970576,4.10561525 8.36,5.27684576 Z" id="Path-2"></path>
                </g>
            </g>
            <path d="M50.8154762,21.6847619 C50.9045243,21.8034927 50.9787299,21.9481936 51.0380952,22.118869 C51.0974606,22.2895445 51.1271429,22.4490866 51.1271429,22.5975 C51.1271429,22.9982163 50.9750214,23.3321415 50.6707738,23.5992857 C50.3665263,23.8664299 50.0140496,24 49.6133333,24 C49.4203959,24 49.2348818,23.9554766 49.0567857,23.8664286 C48.8786896,23.7773805 48.7302784,23.651231 48.6115476,23.4879762 L43.7807143,17.1210714 L41.6658333,19.1469048 L41.6658333,22.6420238 C41.6658333,23.0427401 41.5359735,23.3692448 41.27625,23.6215476 C41.0165265,23.8738505 40.678891,24 40.2633333,24 C39.862617,24 39.5324021,23.8701402 39.2726786,23.6104167 C39.0129551,23.3506931 38.8830952,23.0278988 38.8830952,22.6420238 L38.8830952,9.77464286 C38.8830952,9.38876791 39.0166653,9.06597352 39.2838095,8.80625 C39.5509537,8.54652648 39.8922995,8.41666667 40.3078571,8.41666667 C40.7085734,8.41666667 41.0350781,8.5428162 41.287381,8.79511905 C41.5396838,9.0474219 41.6658333,9.37392657 41.6658333,9.77464286 L41.6658333,15.829881 L48.7896429,8.81738095 C49.1309938,8.47603004 49.4946012,8.30535714 49.8804762,8.30535714 C50.2218271,8.30535714 50.511229,8.4463478 50.7486905,8.72833333 C50.986152,9.01031887 51.104881,9.3071413 51.104881,9.61880952 C51.104881,9.93047775 50.9713109,10.2198796 50.7041667,10.4870238 L45.8510714,15.1175 L50.8154762,21.6847619 Z M64.2171429,18.0560714 C64.2171429,19.243379 63.9500027,20.3082294 63.4157143,21.2506548 C62.8814259,22.1930801 62.1505007,22.9240053 61.2229167,23.4434524 C60.2953327,23.9628994 59.2750056,24.222619 58.1619048,24.222619 C57.0339626,24.222619 56.0099252,23.9628994 55.0897619,23.4434524 C54.1695986,22.9240053 53.4423836,22.1930801 52.9080952,21.2506548 C52.3738069,20.3082294 52.1066667,19.243379 52.1066667,18.0560714 C52.1066667,16.8687639 52.3738069,15.8039134 52.9080952,14.8614881 C53.4423836,13.9190627 54.1695986,13.1844272 55.0897619,12.6575595 C56.0099252,12.1306918 57.0339626,11.8672619 58.1619048,11.8672619 C59.2750056,11.8672619 60.2953327,12.1306918 61.2229167,12.6575595 C62.1505007,13.1844272 62.8814259,13.9190627 63.4157143,14.8614881 C63.9500027,15.8039134 64.2171429,16.8687639 64.2171429,18.0560714 Z M61.5457143,18.0560714 C61.5457143,17.3288456 61.3935928,16.6795465 61.0893452,16.1081548 C60.7850977,15.536763 60.3769668,15.0952397 59.8649405,14.7835714 C59.3529141,14.4719032 58.7852412,14.3160714 58.1619048,14.3160714 C57.5385683,14.3160714 56.9708954,14.4719032 56.458869,14.7835714 C55.9468427,15.0952397 55.5387118,15.536763 55.2344643,16.1081548 C54.9302167,16.6795465 54.7780952,17.3288456 54.7780952,18.0560714 C54.7780952,18.7832973 54.9302167,19.4288861 55.2344643,19.9928571 C55.5387118,20.5568282 55.9468427,20.9946413 56.458869,21.3063095 C56.9708954,21.6179777 57.5385683,21.7738095 58.1619048,21.7738095 C58.7852412,21.7738095 59.3529141,21.6179777 59.8649405,21.3063095 C60.3769668,20.9946413 60.7850977,20.5568282 61.0893452,19.9928571 C61.3935928,19.4288861 61.5457143,18.7832973 61.5457143,18.0560714 Z M67.467381,18.5013095 C67.081506,18.5013095 66.7587116,18.37516 66.4989881,18.1228571 C66.2392646,17.8705543 66.1094048,17.5514702 66.1094048,17.1655952 C66.1094048,16.7945616 66.2392646,16.4828981 66.4989881,16.2305952 C66.7587116,15.9782924 67.081506,15.8521429 67.467381,15.8521429 L71.3409524,15.8521429 C71.7268273,15.8521429 72.0496217,15.9820027 72.3093452,16.2417262 C72.5690688,16.5014497 72.6989286,16.8242441 72.6989286,17.210119 C72.6989286,17.5811526 72.5690688,17.8891059 72.3093452,18.1339881 C72.0496217,18.3788703 71.7268273,18.5013095 71.3409524,18.5013095 L67.467381,18.5013095 Z M80.9803571,9.88595238 C80.4757514,9.88595238 80.1195645,10.0306533 79.9117857,10.3200595 C79.7040069,10.6094657 79.600119,10.9248396 79.600119,11.2661905 L79.600119,12.3125 L81.6259524,12.3125 C81.9821446,12.3125 82.2789671,12.4275187 82.5164286,12.6575595 C82.7538901,12.8876004 82.872619,13.1807125 82.872619,13.5369048 C82.872619,13.893097 82.7538901,14.1862092 82.5164286,14.41625 C82.2789671,14.6462908 81.9821446,14.7613095 81.6259524,14.7613095 L79.600119,14.7613095 L79.600119,22.6420238 C79.600119,23.0278988 79.4739695,23.3506931 79.2216667,23.6104167 C78.9693638,23.8701402 78.6502797,24 78.2644048,24 C77.8785298,24 77.5594457,23.8701402 77.3071429,23.6104167 C77.05484,23.3506931 76.9286905,23.0278988 76.9286905,22.6420238 L76.9286905,14.7613095 L75.7265476,14.7613095 C75.3703554,14.7613095 75.0735329,14.6462908 74.8360714,14.41625 C74.5986099,14.1862092 74.479881,13.893097 74.479881,13.5369048 C74.479881,13.1807125 74.5986099,12.8876004 74.8360714,12.6575595 C75.0735329,12.4275187 75.3703554,12.3125 75.7265476,12.3125 L76.9286905,12.3125 L76.9286905,11.2884524 C76.9286905,10.1753516 77.3108494,9.27004317 78.0751786,8.5725 C78.8395078,7.87495683 79.9414611,7.52619048 81.3810714,7.52619048 C81.9302012,7.52619048 82.4088273,7.63749889 82.8169643,7.86011905 C83.2251012,8.08273921 83.4291667,8.424085 83.4291667,8.88416667 C83.4291667,9.24035892 83.3252788,9.52976079 83.1175,9.75238095 C82.9097212,9.97500111 82.6574221,10.0863095 82.3605952,10.0863095 C82.2863885,10.0863095 82.2084726,10.078889 82.1268452,10.0640476 C82.0452178,10.0492063 81.9598814,10.0343652 81.8708333,10.0195238 C81.5146411,9.93047575 81.2178186,9.88595238 80.9803571,9.88595238 Z M87.0578571,22.6420238 C87.0578571,23.0278988 86.9317076,23.3506931 86.6794048,23.6104167 C86.4271019,23.8701402 86.1080178,24 85.7221429,24 C85.3362679,24 85.0171838,23.8701402 84.764881,23.6104167 C84.5125781,23.3506931 84.3864286,23.0278988 84.3864286,22.6420238 L84.3864286,13.4478571 C84.3864286,13.0619822 84.5125781,12.7391878 84.764881,12.4794643 C85.0171838,12.2197408 85.3362679,12.089881 85.7221429,12.089881 C86.1080178,12.089881 86.4271019,12.2197408 86.6794048,12.4794643 C86.9317076,12.7391878 87.0578571,13.0619822 87.0578571,13.4478571 L87.0578571,22.6420238 Z M85.699881,10.6428571 C85.1952753,10.6428571 84.8390883,10.561231 84.6313095,10.3979762 C84.4235307,10.2347214 84.3196429,9.94531954 84.3196429,9.5297619 L84.3196429,9.10678571 C84.3196429,8.69122808 84.4309513,8.40182621 84.6535714,8.23857143 C84.8761916,8.07531664 85.2323785,7.99369048 85.7221429,7.99369048 C86.2415899,7.99369048 86.6051974,8.07531664 86.8129762,8.23857143 C87.020755,8.40182621 87.1246429,8.69122808 87.1246429,9.10678571 L87.1246429,9.5297619 C87.1246429,9.96016088 87.0170447,10.253273 86.8018452,10.4091071 C86.5866457,10.5649413 86.219328,10.6428571 85.699881,10.6428571 Z" id="Ko-f" fill="#434B57"></path>
        </g>
    </g>
</svg>